<?xml version="1.0" encoding="UTF-8" standalone="no"?>
<svg width="21px" height="17px" viewBox="0 0 21 17" version="1.1" xmlns="http://www.w3.org/2000/svg" xmlns:xlink="http://www.w3.org/1999/xlink" xmlns:sketch="http://www.bohemiancoding.com/sketch/ns">
    <!-- Generator: Sketch 3.5.2 (25235) - http://www.bohemiancoding.com/sketch -->
    <title>christmas-house-icon</title>
    <desc>Created with Sketch.</desc>
    <defs></defs>
    <g id="Page-1" stroke="none" stroke-width="1" fill="none" fill-rule="evenodd" sketch:type="MSPage">
        <g id="iPhone-5/5S/5C-Copy" sketch:type="MSArtboardGroup" transform="translate(-16.000000, -124.000000)" fill="#F2F2F2" opacity="0.38776819">
            <path d="M18.211296,139.273609 C18.211296,138.835987 18.6186991,138.481165 19.1212331,138.481165 L33.187631,138.481165 C33.6902139,138.481165 34.097568,138.835987 34.097568,139.273609 C34.097568,139.711231 33.6902139,140.066053 33.187631,140.066053 L19.1212331,140.066053 C18.6186991,140.066053 18.211296,139.711231 18.211296,139.273609 L18.211296,139.273609 Z M26.15759,123.99171 L16.3192047,131.63509 C15.9095005,131.953201 15.892609,132.504962 16.2776859,132.842089 C16.6331416,133.153379 17.205053,133.170434 17.5841568,132.881145 L26.1539669,126.334506 L34.586344,132.790499 C34.9645664,133.080215 35.5360862,133.064226 35.8922762,132.754045 C36.2798502,132.416533 36.2620284,131.864731 35.8541358,131.546491 L26.15759,123.99171 L26.15759,123.99171 Z M19.1212331,133.462537 C18.6186991,133.462537 18.211296,133.817274 18.211296,134.255024 C18.211296,134.692646 18.6186991,135.047383 19.1212331,135.047383 L21.6531446,135.047383 L21.6531446,136.015873 L19.1212331,136.015873 C18.6186991,136.015873 18.211296,136.370695 18.211296,136.808317 C18.211296,137.24594 18.6186991,137.600761 19.1212331,137.600761 L24.3683164,137.600761 L24.3683164,133.462537 L19.1212331,133.462537 L19.1212331,133.462537 Z M33.187631,135.047383 C33.6902139,135.047383 34.097568,134.692646 34.097568,134.255024 C34.097568,133.817274 33.6902139,133.462537 33.187631,133.462537 L27.9405966,133.462537 L27.9405966,137.600761 L33.187631,137.600761 C33.6902139,137.600761 34.097568,137.24594 34.097568,136.808317 C34.097568,136.370695 33.6902139,136.015873 33.187631,136.015873 L30.6557195,136.015873 L30.6557195,135.047383 L33.187631,135.047383 L33.187631,135.047383 Z M33.542548,128.562781 L31.1706895,126.624819 L31.1706895,125.026245 L33.542548,125.026245 L33.542548,128.562781 L33.542548,128.562781 Z M32.5090828,132.538005 L19.8525121,132.538005 L26.1557785,127.74484 L32.5090828,132.538005 L32.5090828,132.538005 Z M27.2982794,130.596974 C27.2982794,130.037752 26.77763,129.584397 26.1355087,129.584397 C25.4933874,129.584397 24.9728358,130.037752 24.9728358,130.596974 C24.9728358,131.156153 25.4933874,131.609508 26.1355087,131.609508 C26.77763,131.609508 27.2982794,131.156153 27.2982794,130.596974 L27.2982794,130.596974 Z" id="christmas-house-icon" sketch:type="MSShapeGroup"></path>
        </g>
    </g>
</svg>