<?xml version="1.0" encoding="UTF-8" standalone="no"?>
<svg width="16px" height="20px" viewBox="0 0 16 20" version="1.1" xmlns="http://www.w3.org/2000/svg" xmlns:xlink="http://www.w3.org/1999/xlink" xmlns:sketch="http://www.bohemiancoding.com/sketch/ns">
    <!-- Generator: Sketch 3.5.2 (25235) - http://www.bohemiancoding.com/sketch -->
    <title>danger-8-icon</title>
    <desc>Created with Sketch.</desc>
    <defs></defs>
    <g id="Page-1" stroke="none" stroke-width="1" fill="none" fill-rule="evenodd" sketch:type="MSPage">
        <g id="iPhone-5/5S/5C-Copy" sketch:type="MSArtboardGroup" transform="translate(-19.000000, -164.000000)" fill="#F2F2F2" opacity="0.38776819">
            <path d="M28.7927419,180.820503 C29.8268702,180.594975 31.4134276,178.599638 31.1439169,176.635406 C30.8402628,177.355005 29.440056,178.04246 29.0688749,177.932226 C29.7774192,177.007141 30.5748776,174.934517 29.6408455,173.682037 C29.3331745,174.580177 28.6094855,175.273447 27.976339,175.272501 C28.7513246,174.137158 28.8926752,170.776081 24.8201061,170.115191 C26.6160838,172.428139 22.0956331,175.210435 25.6048625,178.023694 C24.6468919,178.015091 23.6878357,177.321821 23.1992968,176.53401 C22.3489134,178.456314 23.9998493,180.306956 24.7956249,180.820503 C20.9194485,180.457465 18.7210233,176.273928 19.5404659,172.987538 C19.8700668,174.73773 21.6070942,175.241823 22.3413139,175.269712 C17.6625765,170.341475 25.3935966,168.23562 23.6396332,164.424717 C26.5740695,164.681774 29.957473,167.363431 29.0075362,170.270569 C29.9031909,170.057852 30.7445635,169.277888 30.931891,168.101041 C32.8206368,170.391913 32.6614817,173.123725 31.7761406,174.886018 C32.6172961,174.879447 33.8929255,173.886766 34.164336,172.878391 C35.0933199,177.710621 31.1755634,180.820503 28.7927419,180.820503 L28.7927419,180.820503 Z M31.5045129,181.985816 L21.7337343,181.985816 L21.7337343,183.876637 L31.5045129,183.876637 L31.5045129,181.985816 L31.5045129,181.985816 Z" id="danger-8-icon" sketch:type="MSShapeGroup"></path>
        </g>
    </g>
</svg>