<?xml version="1.0" encoding="UTF-8" standalone="no"?>
<svg width="14px" height="18px" viewBox="0 0 14 18" version="1.1" xmlns="http://www.w3.org/2000/svg" xmlns:xlink="http://www.w3.org/1999/xlink" xmlns:sketch="http://www.bohemiancoding.com/sketch/ns">
    <!-- Generator: Sketch 3.5.2 (25235) - http://www.bohemiancoding.com/sketch -->
    <title>Shape</title>
    <desc>Created with Sketch.</desc>
    <defs></defs>
    <g id="Page-1" stroke="none" stroke-width="1" fill="none" fill-rule="evenodd" sketch:type="MSPage">
        <g id="iPhone-5/5S/5C-Copy" sketch:type="MSArtboardGroup" transform="translate(-19.000000, -82.000000)" fill="#F2F2F2" opacity="0.38776819">
            <path d="M32.2562899,97.3972925 C30.5065666,94.7756402 28.0911713,92.4173698 27.9656574,89.1680382 L26.4594907,89.1680382 C26.5887402,92.8983281 29.0833287,95.2795013 30.9070156,98.0113732 C31.0138519,98.2275182 30.8562124,98.4722916 30.6253565,98.4722916 L29.6810139,98.4722916 L26.1442118,93.462309 L23.514397,93.462309 C24.1666209,92.2706488 24.896544,91.0188689 24.9607951,89.1680382 L23.4591111,89.1680382 C23.3328501,92.4195169 20.9032598,94.7963958 19.1684786,97.3972925 C19.045206,97.6456445 18.9884259,97.9033007 18.9884259,98.1537999 C18.9884259,99.0720581 19.7527159,99.9037152 20.7986649,99.9037152 L30.6253565,99.9037152 C31.6713056,99.9037152 32.4363426,99.0720581 32.4363426,98.1530842 C32.4363426,97.902585 32.3795625,97.6456445 32.2562899,97.3972925 L32.2562899,97.3972925 Z M28.7008102,86.3051909 C28.7008102,87.0960525 28.0314028,87.7366145 27.2065972,87.7366145 C26.3817917,87.7366145 25.7123843,87.0960525 25.7123843,86.3051909 C25.7123843,85.5143294 26.3817917,84.8737673 27.2065972,84.8737673 C28.0314028,84.8737673 28.7008102,85.5143294 28.7008102,86.3051909 L28.7008102,86.3051909 Z M24.9652778,85.2316232 C24.9652778,85.8249483 24.4632222,86.3051909 23.8446181,86.3051909 C23.2260139,86.3051909 22.7239583,85.8249483 22.7239583,85.2316232 C22.7239583,84.6382981 23.2260139,84.1580555 23.8446181,84.1580555 C24.4632222,84.1580555 24.9652778,84.6382981 24.9652778,85.2316232 L24.9652778,85.2316232 Z M24.9652778,87.7366145 C24.9652778,88.1316875 24.6313212,88.4523264 24.2181713,88.4523264 C23.8050214,88.4523264 23.4710648,88.1316875 23.4710648,87.7366145 C23.4710648,87.3415416 23.8050214,87.0209027 24.2181713,87.0209027 C24.6313212,87.0209027 24.9652778,87.3415416 24.9652778,87.7366145 L24.9652778,87.7366145 Z M27.2065972,83.4423437 C27.2065972,83.8374166 26.8726406,84.1580555 26.4594907,84.1580555 C26.0463409,84.1580555 25.7123843,83.8374166 25.7123843,83.4423437 C25.7123843,83.0472708 26.0463409,82.7266319 26.4594907,82.7266319 C26.8726406,82.7266319 27.2065972,83.0472708 27.2065972,83.4423437 L27.2065972,83.4423437 Z" id="Shape" sketch:type="MSShapeGroup"></path>
        </g>
    </g>
</svg>